<?xml version="1.0" encoding="utf-8"?>
<!-- Generator: Adobe Illustrator 20.0.0, SVG Export Plug-In . SVG Version: 6.00 Build 0)  -->
<svg version="1.1" id="Layer_1" xmlns="http://www.w3.org/2000/svg" xmlns:xlink="http://www.w3.org/1999/xlink" x="0px" y="0px"
	 viewBox="0 0 116 116" style="enable-background:new 0 0 116 116;" xml:space="preserve">
<style type="text/css">
	.st0{fill:none;}
	.st1{fill:#5E5E5E;}
</style>
<rect class="st0" width="116" height="116"/>
<path class="st1" d="M58,11.6L58,11.6c2.2,0,4.1,2.6,4.1,5.8V29c0,3.2-1.8,5.8-4.1,5.8l0,0c-2.2,0-4.1-2.6-4.1-5.8V17.4
	C53.9,14.2,55.8,11.6,58,11.6z">
<animate  accumulate="none" additive="replace" attributeName="opacity" begin="0s" calcMode="linear" dur="1s" fill="remove" from="1" repeatCount="indefinite" restart="always" to="0">
		</animate>
</path>
<path class="st1" d="M81.2,17.8L81.2,17.8c1.9,1.1,2.2,4.3,0.6,7.1l-5.8,10c-1.6,2.8-4.5,4.1-6.4,3l0,0c-1.9-1.1-2.2-4.3-0.6-7.1
	l5.8-10C76.4,18,79.3,16.7,81.2,17.8z">
<animate  accumulate="none" additive="replace" attributeName="opacity" begin="0.08333333333333333s" calcMode="linear" dur="1s" fill="remove" from="1" repeatCount="indefinite" restart="always" to="0">
		</animate>
</path>
<path class="st1" d="M98.2,34.8L98.2,34.8c1.1,1.9-0.2,4.8-3,6.4l-10,5.8c-2.8,1.6-5.9,1.3-7.1-0.6l0,0c-1.1-1.9,0.2-4.8,3-6.4
	l10-5.8C93.9,32.6,97.1,32.9,98.2,34.8z">
<animate  accumulate="none" additive="replace" attributeName="opacity" begin="0.16666666666666666s" calcMode="linear" dur="1s" fill="remove" from="1" repeatCount="indefinite" restart="always" to="0">
		</animate>
</path>
<path class="st1" d="M104.4,58L104.4,58c0,2.2-2.6,4.1-5.8,4.1H87c-3.2,0-5.8-1.8-5.8-4.1l0,0c0-2.2,2.6-4.1,5.8-4.1h11.6
	C101.8,53.9,104.4,55.8,104.4,58z">
<animate  accumulate="none" additive="replace" attributeName="opacity" begin="0.25s" calcMode="linear" dur="1s" fill="remove" from="1" repeatCount="indefinite" restart="always" to="0">
		</animate>
</path>
<path class="st1" d="M98.2,81.2L98.2,81.2c-1.1,1.9-4.3,2.2-7.1,0.6l-10-5.8c-2.8-1.6-4.1-4.5-3-6.4l0,0c1.1-1.9,4.3-2.2,7.1-0.6
	l10,5.8C98,76.4,99.3,79.3,98.2,81.2z">
<animate  accumulate="none" additive="replace" attributeName="opacity" begin="0.3333333333333333s" calcMode="linear" dur="1s" fill="remove" from="1" repeatCount="indefinite" restart="always" to="0">
		</animate>
</path>
<path class="st1" d="M81.2,98.2L81.2,98.2c-1.9,1.1-4.8-0.2-6.4-3l-5.8-10c-1.6-2.8-1.3-5.9,0.6-7.1l0,0c1.9-1.1,4.8,0.2,6.4,3
	l5.8,10C83.4,93.9,83.1,97.1,81.2,98.2z">
<animate  accumulate="none" additive="replace" attributeName="opacity" begin="0.4166666666666667s" calcMode="linear" dur="1s" fill="remove" from="1" repeatCount="indefinite" restart="always" to="0">
		</animate>
</path>
<path class="st1" d="M58,104.4L58,104.4c-2.2,0-4.1-2.6-4.1-5.8V87c0-3.2,1.8-5.8,4.1-5.8l0,0c2.2,0,4.1,2.6,4.1,5.8v11.6
	C62.1,101.8,60.2,104.4,58,104.4z">
<animate  accumulate="none" additive="replace" attributeName="opacity" begin="0.5s" calcMode="linear" dur="1s" fill="remove" from="1" repeatCount="indefinite" restart="always" to="0">
		</animate>
</path>
<path class="st1" d="M34.8,98.2L34.8,98.2c-1.9-1.1-2.2-4.3-0.6-7.1l5.8-10c1.6-2.8,4.5-4.1,6.4-3l0,0c1.9,1.1,2.2,4.3,0.6,7.1
	l-5.8,10C39.6,98,36.7,99.3,34.8,98.2z">
<animate  accumulate="none" additive="replace" attributeName="opacity" begin="0.5833333333333334s" calcMode="linear" dur="1s" fill="remove" from="1" repeatCount="indefinite" restart="always" to="0">
		</animate>
</path>
<path class="st1" d="M17.8,81.2L17.8,81.2c-1.1-1.9,0.2-4.8,3-6.4l10-5.8c2.8-1.6,5.9-1.3,7.1,0.6l0,0c1.1,1.9-0.2,4.8-3,6.4
	l-10,5.8C22.1,83.4,18.9,83.1,17.8,81.2z">
<animate  accumulate="none" additive="replace" attributeName="opacity" begin="0.6666666666666666s" calcMode="linear" dur="1s" fill="remove" from="1" repeatCount="indefinite" restart="always" to="0">
		</animate>
</path>
<path class="st1" d="M11.6,58L11.6,58c0-2.2,2.6-4.1,5.8-4.1H29c3.2,0,5.8,1.8,5.8,4.1l0,0c0,2.2-2.6,4.1-5.8,4.1H17.4
	C14.2,62.1,11.6,60.2,11.6,58z">
<animate  accumulate="none" additive="replace" attributeName="opacity" begin="0.75s" calcMode="linear" dur="1s" fill="remove" from="1" repeatCount="indefinite" restart="always" to="0">
		</animate>
</path>
<path class="st1" d="M17.8,34.8L17.8,34.8c1.1-1.9,4.3-2.2,7.1-0.6l10,5.8c2.8,1.6,4.1,4.5,3,6.4l0,0c-1.1,1.9-4.3,2.2-7.1,0.6
	l-10-5.8C18,39.6,16.7,36.7,17.8,34.8z">
<animate  accumulate="none" additive="replace" attributeName="opacity" begin="0.8333333333333334s" calcMode="linear" dur="1s" fill="remove" from="1" repeatCount="indefinite" restart="always" to="0">
		</animate>
</path>
<path class="st1" d="M34.8,17.8L34.8,17.8c1.9-1.1,4.8,0.2,6.4,3l5.8,10c1.6,2.8,1.3,5.9-0.6,7.1l0,0c-1.9,1.1-4.8-0.2-6.4-3
	l-5.8-10C32.6,22.1,32.9,18.9,34.8,17.8z">
<animate  accumulate="none" additive="replace" attributeName="opacity" begin="0.9166666666666666s" calcMode="linear" dur="1s" fill="remove" from="1" repeatCount="indefinite" restart="always" to="0">
		</animate>
</path>
</svg>
